<mxfile host="Electron" agent="Mozilla/5.0 (Windows NT 10.0; Win64; x64) AppleWebKit/537.36 (KHTML, like Gecko) draw.io/24.7.17 Chrome/128.0.6613.36 Electron/32.0.1 Safari/537.36" version="24.7.17">
  <diagram name="Pagina-1" id="F46Gb688E6bxR21cDZbG">
    <mxGraphModel dx="568" dy="329" grid="1" gridSize="10" guides="1" tooltips="1" connect="1" arrows="1" fold="1" page="1" pageScale="1" pageWidth="827" pageHeight="1169" math="1" shadow="0">
      <root>
        <mxCell id="0" />
        <mxCell id="1" parent="0" />
        <mxCell id="50sLWlbD1TQSgn_a69TY-3" value="PID" style="rounded=0;whiteSpace=wrap;html=1;fillColor=none;" vertex="1" parent="1">
          <mxGeometry x="280" y="270" width="40" height="40" as="geometry" />
        </mxCell>
        <mxCell id="50sLWlbD1TQSgn_a69TY-6" style="edgeStyle=orthogonalEdgeStyle;rounded=0;orthogonalLoop=1;jettySize=auto;html=1;entryX=0;entryY=0.5;entryDx=0;entryDy=0;" edge="1" parent="1" source="50sLWlbD1TQSgn_a69TY-7" target="50sLWlbD1TQSgn_a69TY-3">
          <mxGeometry relative="1" as="geometry" />
        </mxCell>
        <mxCell id="50sLWlbD1TQSgn_a69TY-7" value="" style="ellipse;whiteSpace=wrap;html=1;aspect=fixed;fillColor=none;" vertex="1" parent="1">
          <mxGeometry x="210" y="280" width="20" height="20" as="geometry" />
        </mxCell>
        <mxCell id="50sLWlbD1TQSgn_a69TY-8" style="edgeStyle=orthogonalEdgeStyle;rounded=0;orthogonalLoop=1;jettySize=auto;html=1;entryX=0;entryY=0.5;entryDx=0;entryDy=0;" edge="1" parent="1">
          <mxGeometry relative="1" as="geometry">
            <mxPoint x="160" y="289.76" as="sourcePoint" />
            <mxPoint x="210" y="289.76" as="targetPoint" />
          </mxGeometry>
        </mxCell>
        <mxCell id="50sLWlbD1TQSgn_a69TY-9" style="edgeStyle=orthogonalEdgeStyle;rounded=0;orthogonalLoop=1;jettySize=auto;html=1;entryX=0.5;entryY=1;entryDx=0;entryDy=0;" edge="1" parent="1" target="50sLWlbD1TQSgn_a69TY-7">
          <mxGeometry relative="1" as="geometry">
            <Array as="points">
              <mxPoint x="220" y="360" />
            </Array>
            <mxPoint x="348.9997459621556" y="360" as="sourcePoint" />
            <mxPoint x="218.66" y="305" as="targetPoint" />
          </mxGeometry>
        </mxCell>
        <mxCell id="50sLWlbD1TQSgn_a69TY-10" value="" style="ellipse;whiteSpace=wrap;html=1;aspect=fixed;fillColor=none;" vertex="1" parent="1">
          <mxGeometry x="349" y="350" width="20" height="20" as="geometry" />
        </mxCell>
        <mxCell id="50sLWlbD1TQSgn_a69TY-11" value="" style="endArrow=classic;html=1;rounded=0;entryX=1;entryY=0.5;entryDx=0;entryDy=0;" edge="1" parent="1" target="50sLWlbD1TQSgn_a69TY-10">
          <mxGeometry width="50" height="50" relative="1" as="geometry">
            <mxPoint x="570" y="290" as="sourcePoint" />
            <mxPoint x="369" y="355" as="targetPoint" />
            <Array as="points">
              <mxPoint x="570" y="360" />
              <mxPoint x="430" y="360" />
            </Array>
          </mxGeometry>
        </mxCell>
        <mxCell id="50sLWlbD1TQSgn_a69TY-12" value="\(r(t)\)" style="text;html=1;align=center;verticalAlign=middle;whiteSpace=wrap;rounded=0;" vertex="1" parent="1">
          <mxGeometry x="170" y="260" width="30" height="30" as="geometry" />
        </mxCell>
        <mxCell id="50sLWlbD1TQSgn_a69TY-13" value="\(e(t)\)" style="text;html=1;align=center;verticalAlign=middle;whiteSpace=wrap;rounded=0;" vertex="1" parent="1">
          <mxGeometry x="230" y="260" width="30" height="30" as="geometry" />
        </mxCell>
        <mxCell id="50sLWlbD1TQSgn_a69TY-14" value="\(u(t)\)" style="text;html=1;align=center;verticalAlign=middle;whiteSpace=wrap;rounded=0;" vertex="1" parent="1">
          <mxGeometry x="344" y="260" width="30" height="30" as="geometry" />
        </mxCell>
        <mxCell id="50sLWlbD1TQSgn_a69TY-15" value="\(y(t)\)" style="text;html=1;align=center;verticalAlign=middle;whiteSpace=wrap;rounded=0;" vertex="1" parent="1">
          <mxGeometry x="590" y="255" width="30" height="25" as="geometry" />
        </mxCell>
        <mxCell id="50sLWlbD1TQSgn_a69TY-16" value="\(y_m(t)\)" style="text;html=1;align=center;verticalAlign=middle;whiteSpace=wrap;rounded=0;" vertex="1" parent="1">
          <mxGeometry x="180" y="340" width="30" height="30" as="geometry" />
        </mxCell>
        <mxCell id="50sLWlbD1TQSgn_a69TY-17" value="" style="endArrow=classic;html=1;rounded=0;exitX=0.5;exitY=0;exitDx=0;exitDy=0;" edge="1" parent="1" source="50sLWlbD1TQSgn_a69TY-18">
          <mxGeometry width="50" height="50" relative="1" as="geometry">
            <mxPoint x="360" y="390" as="sourcePoint" />
            <mxPoint x="359" y="370" as="targetPoint" />
          </mxGeometry>
        </mxCell>
        <mxCell id="50sLWlbD1TQSgn_a69TY-18" value="\(n(t)\)" style="text;html=1;align=center;verticalAlign=middle;whiteSpace=wrap;rounded=0;" vertex="1" parent="1">
          <mxGeometry x="344" y="390" width="30" height="30" as="geometry" />
        </mxCell>
        <mxCell id="50sLWlbD1TQSgn_a69TY-19" style="edgeStyle=orthogonalEdgeStyle;rounded=0;orthogonalLoop=1;jettySize=auto;html=1;entryX=0;entryY=0.5;entryDx=0;entryDy=0;exitX=1;exitY=0.5;exitDx=0;exitDy=0;" edge="1" parent="1" source="50sLWlbD1TQSgn_a69TY-3">
          <mxGeometry relative="1" as="geometry">
            <mxPoint x="369" y="289.9999999999999" as="sourcePoint" />
            <mxPoint x="400" y="290" as="targetPoint" />
          </mxGeometry>
        </mxCell>
        <mxCell id="50sLWlbD1TQSgn_a69TY-22" value="" style="endArrow=classic;html=1;rounded=0;entryDx=0;entryDy=0;" edge="1" parent="1">
          <mxGeometry width="50" height="50" relative="1" as="geometry">
            <mxPoint x="220" y="335" as="sourcePoint" />
            <mxPoint x="220" y="335" as="targetPoint" />
          </mxGeometry>
        </mxCell>
        <mxCell id="50sLWlbD1TQSgn_a69TY-26" style="edgeStyle=orthogonalEdgeStyle;rounded=0;orthogonalLoop=1;jettySize=auto;html=1;" edge="1" parent="1" source="50sLWlbD1TQSgn_a69TY-23">
          <mxGeometry relative="1" as="geometry">
            <mxPoint x="630" y="290" as="targetPoint" />
          </mxGeometry>
        </mxCell>
        <mxCell id="50sLWlbD1TQSgn_a69TY-23" value="\(P(s)\)" style="rounded=0;whiteSpace=wrap;html=1;fillColor=none;" vertex="1" parent="1">
          <mxGeometry x="490" y="270" width="40" height="40" as="geometry" />
        </mxCell>
        <mxCell id="50sLWlbD1TQSgn_a69TY-24" value="\(u_H \lor u_L\)" style="text;html=1;align=center;verticalAlign=middle;whiteSpace=wrap;rounded=0;" vertex="1" parent="1">
          <mxGeometry x="400" y="220" width="60" height="30" as="geometry" />
        </mxCell>
        <mxCell id="50sLWlbD1TQSgn_a69TY-25" style="edgeStyle=orthogonalEdgeStyle;rounded=0;orthogonalLoop=1;jettySize=auto;html=1;entryX=0;entryY=0.5;entryDx=0;entryDy=0;" edge="1" parent="1" target="50sLWlbD1TQSgn_a69TY-23">
          <mxGeometry relative="1" as="geometry">
            <mxPoint x="430" y="250" as="sourcePoint" />
            <Array as="points">
              <mxPoint x="470" y="290" />
              <mxPoint x="470" y="290" />
            </Array>
          </mxGeometry>
        </mxCell>
      </root>
    </mxGraphModel>
  </diagram>
</mxfile>
